# xmcd
#
# Track frame offsets:
#       150
#       20637
#       36935
#       49446
#       63806
#       75547
#       90699
#       105967
#       119885
#       136044
#       147060
#       165615
#       179731
#       191390
#       200966
#       213091
#       231967
#       246222
#       278801
#       294984
#       310542
#
# Disc length: 4438 seconds
#
#
# Revision: 0
# Processed by: cddbd v1.5.1PL2 Copyright (c) Steve Scherf et al.
# Submitted via: Visual Ripper tool of Visual MP3 v4.18
#
DISCID=2f115415
DTITLE=Ella Armstrong - Unknown Album
DYEAR=1900
DGENRE=Blues
TTITLE0=As time goes by
TTITLE1=Misty
TTITLE2=Moon River
TTITLE3=Shadow of your smile
TTITLE4=Autumn Leaves
TTITLE5=As time goes by
TTITLE6=Begin the beguine
TTITLE7=Bewitched
TTITLE8=I'm in the mood for love
TTITLE9=I'll be seeing you
TTITLE10=Send in d clowns
TTITLE11=Can't take my eyes off you
TTITLE12=I only have eyes u
TTITLE13=Till
TTITLE14=Love is a many splendored thing
TTITLE15=Hello
TTITLE16=Dream a Li'l dream
TTITLE17=It had to be you
TTITLE18=Paper moon
TTITLE19=Le vie en Rose
TTITLE20=Summer time
EXTD=
EXTT0=
EXTT1=
EXTT2=
EXTT3=
EXTT4=
EXTT5=
EXTT6=
EXTT7=
EXTT8=
EXTT9=
EXTT10=
EXTT11=
EXTT12=
EXTT13=
EXTT14=
EXTT15=
EXTT16=
EXTT17=
EXTT18=
EXTT19=
EXTT20=
PLAYORDER=
